<?xml version="1.0" encoding="UTF-8"?>
<svg xmlns="http://www.w3.org/2000/svg" viewBox="0 0 1100 280" role="img" aria-label="Game loop">
  <defs>
    <linearGradient id="bg" x1="0" y1="0" x2="1" y2="0">
      <stop offset="0%" stop-color="#111827"/>
      <stop offset="100%" stop-color="#1e293b"/>
    </linearGradient>
    <marker id="arrow" markerWidth="10" markerHeight="10" refX="8" refY="3" orient="auto">
      <path d="M0,0 L8,3 L0,6 Z" fill="#94a3b8"/>
    </marker>
  </defs>
  <rect width="1100" height="280" rx="24" fill="url(#bg)"/>
  <text x="40" y="42" fill="#f8fafc" font-family="Segoe UI, Arial, sans-serif" font-size="22" font-weight="800">Store gameplay loop</text>
  <rect x="40" y="80" width="140" height="110" rx="18" fill="#7c3aed"/>
  <text x="110" y="125" text-anchor="middle" fill="#fff" font-family="Segoe UI, Arial, sans-serif" font-size="15" font-weight="700">Terminal</text>
  <rect x="210" y="80" width="140" height="110" rx="18" fill="#0891b2"/>
  <text x="280" y="125" text-anchor="middle" fill="#fff" font-family="Segoe UI, Arial, sans-serif" font-size="15" font-weight="700">Delivery</text>
  <rect x="380" y="80" width="140" height="110" rx="18" fill="#059669"/>
  <text x="450" y="125" text-anchor="middle" fill="#fff" font-family="Segoe UI, Arial, sans-serif" font-size="15" font-weight="700">Shelving</text>
  <rect x="550" y="80" width="140" height="110" rx="18" fill="#d97706"/>
  <text x="620" y="125" text-anchor="middle" fill="#fff" font-family="Segoe UI, Arial, sans-serif" font-size="15" font-weight="700">Customer</text>
  <rect x="720" y="80" width="140" height="110" rx="18" fill="#dc2626"/>
  <text x="790" y="125" text-anchor="middle" fill="#fff" font-family="Segoe UI, Arial, sans-serif" font-size="15" font-weight="700">Checkout</text>
  <rect x="890" y="80" width="90" height="110" rx="18" fill="#4f46e5"/>
  <text x="935" y="130" text-anchor="middle" fill="#fff" font-family="Segoe UI, Arial, sans-serif" font-size="28" font-weight="800">$</text>
  <g stroke="#94a3b8" stroke-width="3" fill="none" marker-end="url(#arrow)">
    <path d="M180 135 H210"/><path d="M350 135 H380"/><path d="M520 135 H550"/><path d="M690 135 H720"/><path d="M860 135 H890"/>
  </g>
  <path d="M935 190 C800 235 600 235 110 190" stroke="#22d3ee" stroke-width="2" fill="none" stroke-dasharray="8 6" opacity="0.8"/>
</svg>
